<svg xmlns="http://www.w3.org/2000/svg" xmlns:xlink="http://www.w3.org/1999/xlink" version="1.1" x="0px" y="0px" viewBox="0 0 90 112.5" enable-background="new 0 0 90 90" xml:space="preserve"><path d="M47.4,79.2c-0.5,0-1-0.2-1.3-0.7c-0.4-0.7-0.2-1.6,0.5-2.1C60,67.9,65.9,54.4,62,41.1c-4.1-14-17.5-23-34.2-23  c-0.2,0-0.4,0-0.6,0c-0.9,0-1.5-0.7-1.5-1.5c0-0.8,0.7-1.5,1.5-1.5c0.2,0,0.4,0,0.6,0c18,0,32.5,9.8,37,25.1  c4.3,14.7-2,29.5-16.6,38.7C48,79.1,47.7,79.2,47.4,79.2z"/><path d="M32.9,24.7c-0.5,0-1-0.3-1.3-0.8c-1.1-1.9-2.6-3.1-4.3-4.3c-1-0.8-2-1.5-2.9-2.5c-0.3-0.3-0.5-0.8-0.4-1.3s0.4-0.9,0.8-1.1  c1.5-0.7,2.9-1.3,4.3-1.9c1.4-0.6,2.8-1.2,4.1-1.9c0.7-0.4,1.6-0.1,2,0.7c0.4,0.7,0.1,1.6-0.7,2c-1.5,0.7-2.9,1.3-4.3,1.9  c-0.7,0.3-1.4,0.6-2.1,0.9c0.3,0.2,0.6,0.5,1,0.7c1.8,1.3,3.8,2.8,5.1,5.2c0.4,0.7,0.2,1.6-0.6,2C33.4,24.7,33.1,24.7,32.9,24.7z"/><text x="0" y="105" fill="#000000" font-size="5px" font-weight="bold" font-family="'Helvetica Neue', Helvetica, Arial-Unicode, Arial, Sans-serif">Created by Yoteyo</text><text x="0" y="110" fill="#000000" font-size="5px" font-weight="bold" font-family="'Helvetica Neue', Helvetica, Arial-Unicode, Arial, Sans-serif">from the Noun Project</text></svg>