<?xml version="1.0" encoding="utf-8"?>
<!-- Generator: Adobe Illustrator 25.4.1, SVG Export Plug-In . SVG Version: 6.00 Build 0)  -->
<svg version="1.1" id="Layer_1" xmlns="http://www.w3.org/2000/svg" xmlns:xlink="http://www.w3.org/1999/xlink" x="0px" y="0px"
	 viewBox="0 0 1920 576" style="enable-background:new 0 0 1920 576;" xml:space="preserve">
<style type="text/css">
	.st0{fill:#FCF4BA;}
	.st1{fill:none;stroke:#707070;}
	.st2{enable-background:new    ;}
	.st3{fill:#FFABDB;}
</style>
<circle class="st0" cx="1779.48" cy="290.09" r="84.52"/>
<circle class="st1" cx="1779.48" cy="290.09" r="83.89"/>
<g>
	<g class="st2">
		<path d="M212.92,224.55h16.94v134.68h-16.94V224.55z M290.34,224.55h23.16l-86,88.57v-23.59L290.34,224.55z M251.74,281.38
			l65.41,77.85h-21.87l-55.54-66.91L251.74,281.38z"/>
		<path d="M371.72,361.8c-8.44,0-15.41-1.5-20.91-4.5c-5.51-3-9.62-6.9-12.33-11.69c-2.72-4.79-4.07-9.83-4.07-15.12
			c0-6.93,1.73-12.58,5.2-16.94c3.47-4.36,8.2-7.56,14.21-9.6c6-2.04,12.76-3.06,20.27-3.06c5.36,0,10.74,0.54,16.14,1.61
			c5.4,1.07,10.67,2.54,15.82,4.4v10.51c-4.29-1.72-9.13-3.07-14.53-4.08c-5.4-1-10.35-1.5-14.85-1.5c-6.86,0-12.65,1.41-17.37,4.24
			c-4.72,2.83-7.08,7.63-7.08,14.42c0,5,1.8,9.29,5.42,12.87c3.61,3.58,9.38,5.36,17.32,5.36c5.58,0,10.6-1.3,15.07-3.91
			c4.47-2.61,8.01-5.88,10.62-9.81c2.61-3.93,3.91-7.86,3.91-11.79h4.07c0,6.86-1.48,13.23-4.45,19.09
			c-2.97,5.86-7.2,10.58-12.71,14.15C385.95,360.02,379.37,361.8,371.72,361.8z M406.68,359.23l-2.14-22.52v-43.96
			c0-9.22-1.97-15.85-5.9-19.89c-3.93-4.04-9.83-6.06-17.69-6.06c-4.43,0-8.45,0.64-12.06,1.93c-3.61,1.29-6.47,3.27-8.58,5.95
			c-2.11,2.68-3.16,6.13-3.16,10.35h-18.66c0-7.43,1.82-13.42,5.47-17.96c3.65-4.54,8.67-7.83,15.07-9.86
			c6.4-2.04,13.71-3.06,21.93-3.06c7.86,0,14.83,1.32,20.91,3.97c6.08,2.65,10.83,6.85,14.26,12.6c3.43,5.76,5.15,13.24,5.15,22.46
			v66.05H406.68z"/>
		<path d="M446.89,268.3v-11.58h65.41v11.58H446.89z M492.78,361.8c-5.58,0-10.58-1.07-15.01-3.22c-4.43-2.14-7.93-5.36-10.51-9.65
			c-2.57-4.29-3.86-9.65-3.86-16.08V228.2h16.51v104.23c0,10.58,4.93,15.87,14.8,15.87c2.93,0,5.77-0.32,8.52-0.96
			c2.75-0.64,5.84-1.61,9.27-2.9l2.36,12.01c-3.65,1.57-7.27,2.86-10.88,3.86C500.38,361.3,496.64,361.8,492.78,361.8z"/>
		<path d="M577.49,361.8c-8.86,0-16.78-2.27-23.75-6.81s-12.48-10.85-16.51-18.93c-4.04-8.08-6.06-17.37-6.06-27.88
			c0-11.22,2-20.87,6-28.95c4-8.08,9.49-14.28,16.46-18.6c6.97-4.32,14.92-6.49,23.86-6.49c7.79,0,14.44,1.57,19.94,4.72
			c5.5,3.15,9.94,7.4,13.3,12.76c3.36,5.36,5.7,11.42,7.02,18.18c1.32,6.75,1.7,13.74,1.13,20.96h-74.2v-10.29h63.16l-4.93,3.22
			c0.21-4.22-0.02-8.43-0.7-12.65c-0.68-4.22-1.95-8.1-3.81-11.63c-1.86-3.54-4.47-6.38-7.83-8.52c-3.36-2.14-7.65-3.22-12.87-3.22
			c-6.58,0-12.08,1.68-16.51,5.04c-4.43,3.36-7.76,7.77-9.97,13.24c-2.22,5.47-3.32,11.38-3.32,17.75v6.86
			c0,7.15,1.09,13.55,3.27,19.19c2.18,5.65,5.45,10.12,9.81,13.4c4.36,3.29,9.86,4.93,16.51,4.93c6.65,0,12.12-1.61,16.41-4.83
			s6.9-7.97,7.83-14.26h17.37c-1.07,6.79-3.5,12.64-7.29,17.53c-3.79,4.9-8.62,8.67-14.48,11.31
			C591.46,360.48,584.85,361.8,577.49,361.8z"/>
		<path d="M652.01,359.23V256.51h16.73v102.72H652.01z M663.59,312.91c0-13.01,1.25-23.82,3.75-32.44
			c2.5-8.61,6.17-15.05,10.99-19.3c4.83-4.25,10.7-6.38,17.64-6.38c2.29,0,4.38,0.16,6.27,0.48c1.89,0.32,3.81,0.8,5.74,1.45
			l-1.07,16.51c-2-0.64-4.18-1.2-6.54-1.66c-2.36-0.46-4.47-0.7-6.33-0.7c-6.08,0-10.97,1.73-14.69,5.2
			c-3.72,3.47-6.42,8.35-8.1,14.64c-1.68,6.29-2.52,13.69-2.52,22.2H663.59z"/>
		<path d="M738.97,232.49c-3.43,0-6.15-0.98-8.15-2.95c-2-1.97-3-4.56-3-7.77c0-3.14,1-5.65,3-7.51c2-1.86,4.72-2.79,8.15-2.79
			c3.43,0,6.15,0.93,8.15,2.79c2,1.86,3,4.36,3,7.51c0,3.22-1,5.81-3,7.77C745.12,231.51,742.4,232.49,738.97,232.49z
			 M730.61,359.23V256.51h16.73v102.72H730.61z"/>
		<path d="M793.44,359.23V256.72h14.37l2.36,23.59v78.92H793.44z M866.36,359.23v-60.26c0-9.79-2.34-17.25-7.02-22.36
			c-4.68-5.11-11.06-7.67-19.14-7.67c-6.15,0-11.47,1.68-15.98,5.04c-4.5,3.36-7.97,8.17-10.4,14.42
			c-2.43,6.26-3.65,13.71-3.65,22.36h-6.43c0-11.94,1.57-22.12,4.72-30.56c3.14-8.43,7.74-14.89,13.78-19.35
			c6.04-4.47,13.38-6.7,22.04-6.7c8.08,0,14.99,1.81,20.75,5.42c5.75,3.61,10.17,8.78,13.24,15.49c3.07,6.72,4.61,14.69,4.61,23.91
			v60.26H866.36z"/>
		<path d="M951.38,361.8c-8.44,0-15.41-1.5-20.91-4.5c-5.51-3-9.62-6.9-12.33-11.69c-2.72-4.79-4.07-9.83-4.07-15.12
			c0-6.93,1.73-12.58,5.2-16.94c3.47-4.36,8.2-7.56,14.21-9.6c6-2.04,12.76-3.06,20.27-3.06c5.36,0,10.74,0.54,16.14,1.61
			c5.4,1.07,10.67,2.54,15.82,4.4v10.51c-4.29-1.72-9.13-3.07-14.53-4.08c-5.4-1-10.35-1.5-14.85-1.5c-6.86,0-12.65,1.41-17.37,4.24
			c-4.72,2.83-7.08,7.63-7.08,14.42c0,5,1.8,9.29,5.42,12.87c3.61,3.58,9.38,5.36,17.32,5.36c5.58,0,10.6-1.3,15.07-3.91
			c4.47-2.61,8-5.88,10.62-9.81c2.61-3.93,3.91-7.86,3.91-11.79h4.07c0,6.86-1.48,13.23-4.45,19.09
			c-2.97,5.86-7.2,10.58-12.71,14.15C965.61,360.02,959.03,361.8,951.38,361.8z M986.34,359.23l-2.14-22.52v-43.96
			c0-9.22-1.97-15.85-5.9-19.89c-3.93-4.04-9.83-6.06-17.69-6.06c-4.43,0-8.45,0.64-12.06,1.93c-3.61,1.29-6.47,3.27-8.58,5.95
			c-2.11,2.68-3.16,6.13-3.16,10.35h-18.66c0-7.43,1.82-13.42,5.47-17.96c3.65-4.54,8.67-7.83,15.07-9.86
			c6.4-2.04,13.71-3.06,21.93-3.06c7.86,0,14.83,1.32,20.91,3.97c6.08,2.65,10.83,6.85,14.26,12.6c3.43,5.76,5.15,13.24,5.15,22.46
			v66.05H986.34z"/>
		<path d="M1091.85,224.55h39.46c13.58,0,25.38,2.77,35.38,8.31c10.01,5.54,17.76,13.35,23.27,23.43c5.5,10.08,8.26,21.95,8.26,35.6
			c0,13.51-2.75,25.31-8.26,35.38c-5.51,10.08-13.26,17.93-23.27,23.54c-10.01,5.61-21.8,8.42-35.38,8.42h-39.46V224.55z
			 M1108.58,239.35v105.3h22.73c10.15,0,18.89-2.29,26.22-6.86c7.33-4.57,12.97-10.85,16.94-18.82c3.97-7.97,5.95-17,5.95-27.08
			c0-10.15-1.98-19.18-5.95-27.08c-3.97-7.9-9.62-14.12-16.94-18.66c-7.33-4.54-16.07-6.81-26.22-6.81H1108.58z"/>
		<path d="M1230.38,256.51h16.73v63.91c0,8.58,2.09,15.08,6.27,19.52c4.18,4.43,10.17,6.65,17.96,6.65c6.43,0,12.03-1.71,16.78-5.15
			c4.75-3.43,8.43-8.17,11.04-14.21c2.61-6.04,3.91-12.96,3.91-20.75h6.22c0,11.51-1.66,21.34-4.99,29.49s-8.01,14.39-14.05,18.71
			c-6.04,4.33-13.13,6.49-21.28,6.49c-7.72,0-14.48-1.43-20.27-4.29c-5.79-2.86-10.29-7.2-13.51-13.03
			c-3.22-5.83-4.83-13.21-4.83-22.14V256.51z M1303.08,256.51h16.73v102.72h-16.73V256.51z"/>
		<path d="M1399.27,361.8c-8.22,0-15.89-2.22-23-6.65c-7.11-4.43-12.85-10.69-17.21-18.77c-4.36-8.08-6.54-17.62-6.54-28.63
			c0-11.29,2.18-20.94,6.54-28.95c4.36-8,10.1-14.12,17.21-18.34c7.11-4.22,14.78-6.33,23-6.33c5.79,0,10.99,0.88,15.6,2.63
			c4.61,1.75,8.63,4.17,12.06,7.24c3.43,3.07,6.27,6.56,8.52,10.46c2.25,3.9,3.91,7.99,4.99,12.28l-17.16,1.5
			c-1.79-5.93-4.77-10.63-8.95-14.1c-4.18-3.47-9.28-5.2-15.28-5.2c-5.08,0-9.85,1.45-14.31,4.34c-4.47,2.9-8.1,7.22-10.88,12.97
			c-2.79,5.76-4.18,12.92-4.18,21.5c0,7.93,1.27,14.82,3.81,20.64c2.54,5.83,6.02,10.35,10.45,13.56c4.43,3.22,9.47,4.83,15.12,4.83
			c7.94,0,13.96-1.95,18.07-5.84c4.11-3.9,6.17-9.31,6.17-16.25h17.16c0,7.15-1.68,13.51-5.04,19.09
			c-3.36,5.58-8.13,9.97-14.32,13.19C1414.9,360.2,1407.63,361.8,1399.27,361.8z"/>
		<path d="M1511,361.8c-9.22,0-17.42-2.04-24.61-6.11c-7.18-4.08-12.85-10.12-17-18.12c-4.15-8-6.22-17.87-6.22-29.59
			c0-11.79,2.07-21.68,6.22-29.65c4.15-7.97,9.81-13.99,17-18.07c7.18-4.07,15.39-6.11,24.61-6.11c9.15,0,17.32,2.04,24.5,6.11
			c7.18,4.07,12.83,10.1,16.94,18.07c4.11,7.97,6.17,17.85,6.17,29.65c0,11.72-2.06,21.59-6.17,29.59
			c-4.11,8.01-9.76,14.05-16.94,18.12C1528.31,359.77,1520.14,361.8,1511,361.8z M1510.57,347.22c6.65,0,12.29-1.59,16.94-4.77
			c4.65-3.18,8.17-7.7,10.56-13.56c2.39-5.86,3.59-12.83,3.59-20.91c0-12.22-2.54-21.86-7.61-28.9
			c-5.08-7.04-12.62-10.56-22.62-10.56c-6.72,0-12.38,1.59-17,4.77c-4.61,3.18-8.11,7.72-10.51,13.62
			c-2.4,5.9-3.59,12.92-3.59,21.07c0,12.08,2.55,21.64,7.67,28.68C1493.1,343.7,1500.63,347.22,1510.57,347.22z"/>
		<path d="M1576.72,268.3v-11.58h65.41v11.58H1576.72z M1622.62,361.8c-5.58,0-10.58-1.07-15.01-3.22
			c-4.43-2.14-7.93-5.36-10.51-9.65c-2.57-4.29-3.86-9.65-3.86-16.08V228.2h16.51v104.23c0,10.58,4.93,15.87,14.8,15.87
			c2.93,0,5.77-0.32,8.52-0.96c2.75-0.64,5.84-1.61,9.28-2.9l2.36,12.01c-3.65,1.57-7.27,2.86-10.88,3.86
			C1630.21,361.3,1626.48,361.8,1622.62,361.8z"/>
	</g>
</g>
<g id="noun_blink_2618636" transform="translate(1404 121.633)">
	<path id="Path_6" d="M417.53,171.05c-1.83,0-3.32,1.48-3.32,3.32c0,0,0,0,0,0c0.13,22.75-18.21,41.29-40.96,41.42
		c-22.75,0.13-41.29-18.21-41.42-40.96c0-0.15,0-0.3,0-0.46c0-1.83-1.49-3.32-3.32-3.32c-1.83,0-3.32,1.49-3.32,3.32
		c0,26.41,21.42,47.82,47.83,47.82c26.41,0,47.82-21.41,47.82-47.82C420.85,172.54,419.37,171.05,417.53,171.05
		C417.53,171.05,417.53,171.05,417.53,171.05z"/>
	<path id="Path_7" d="M373.02,80.86c-47.78,0-86.52,38.74-86.52,86.52s38.74,86.52,86.52,86.52s86.52-38.74,86.52-86.52
		C459.48,119.61,420.78,80.91,373.02,80.86z M373.02,247.25c-44.12,0-79.88-35.76-79.88-79.88s35.76-79.88,79.88-79.88
		s79.88,35.76,79.88,79.88c0,0,0,0,0,0.01C452.85,211.47,417.12,247.2,373.02,247.25L373.02,247.25z"/>
	<path id="Path_8" d="M334.41,139.9l-4.93,4.93c-1.31,1.28-1.34,3.38-0.07,4.69s3.38,1.34,4.69,0.07c0.02-0.02,0.05-0.04,0.07-0.07
		l4.93-4.93v6.98c0,1.83,1.49,3.32,3.32,3.32s3.32-1.49,3.32-3.32v-6.98l4.93,4.93c1.31,1.28,3.41,1.25,4.69-0.07
		c1.25-1.29,1.25-3.34,0-4.62l-4.93-4.93h6.97c1.83,0,3.32-1.49,3.32-3.32s-1.49-3.32-3.32-3.32h-6.97l4.93-4.93
		c1.28-1.31,1.25-3.41-0.07-4.69c-1.29-1.25-3.34-1.25-4.62,0l-4.94,4.93v-6.98c0-1.83-1.49-3.32-3.32-3.32
		c-1.83,0-3.32,1.49-3.32,3.32l0,0v6.98l-4.93-4.93c-1.31-1.28-3.41-1.25-4.69,0.07c-1.25,1.29-1.25,3.34,0,4.62l4.93,4.93h-6.98
		c-1.83,0-3.32,1.49-3.32,3.32s1.49,3.32,3.32,3.32L334.41,139.9z"/>
	<path id="Path_9" d="M418.62,133.27h-6.98l4.93-4.93c1.28-1.31,1.25-3.41-0.07-4.69c-1.29-1.25-3.34-1.25-4.62,0l-4.93,4.93v-6.98
		c0-1.83-1.49-3.32-3.32-3.32c-1.83,0-3.32,1.49-3.32,3.32v6.98l-4.93-4.93c-1.31-1.28-3.41-1.25-4.69,0.07
		c-1.25,1.29-1.25,3.34,0,4.62l4.93,4.93h-6.98c-1.83,0-3.32,1.49-3.32,3.32c0,1.83,1.49,3.32,3.32,3.32h6.98l-4.93,4.93
		c-1.31,1.28-1.34,3.38-0.07,4.69s3.38,1.34,4.69,0.07c0.02-0.02,0.05-0.04,0.07-0.07l4.93-4.93v6.98c0,1.83,1.49,3.32,3.32,3.32
		c1.83,0,3.32-1.49,3.32-3.32v-6.98l4.93,4.93c1.31,1.28,3.41,1.25,4.69-0.07c1.25-1.29,1.25-3.34,0-4.62l-4.93-4.93h6.98
		c1.83,0,3.32-1.49,3.32-3.32C421.93,134.76,420.45,133.27,418.62,133.27L418.62,133.27z"/>
</g>
<g id="noun_sparkles_3949177" transform="translate(64 69.759)">
	<path id="Path_10" class="st3" d="M-11.34,137.92c0,0,57.97-3.47,54.82-61.12c0,0,7.25,61.12,62.38,58.91
		c0,0-57.65,8.82-60.17,59.23C46,194.94,45.37,142.02-11.34,137.92z"/>
	<path id="Path_12" class="st3" d="M68.38,214.46c0,0,25.2-1.58,23.94-26.46c0,0,3.15,26.46,27.09,25.52c0,0-25.2,3.78-26.15,25.83
		C93.27,239.03,92.95,216.03,68.38,214.46z"/>
	<path id="Path_13" class="st3" d="M107.75,88.78c0,0,30.56-1.89,28.67-32.13c0,0,3.78,32.13,32.76,30.87c0,0-30.24,4.73-31.5,31.19
		C137.68,118.71,137.36,90.98,107.75,88.78z"/>
	<path id="Path_14" d="M27.73,157.45c5.98,6.04,10.04,13.71,11.66,22.05l4.1,19.85c0.3,1.01,1.16,1.74,2.21,1.89
		c1.26,0,2.21-0.63,2.21-1.89l4.1-19.85c3.57-16.93,16.57-30.3,33.39-34.34l20.16-4.73c1.2-0.32,1.92-1.56,1.6-2.76
		c-0.01-0.03-0.01-0.05-0.02-0.08c-0.32-0.94-0.94-1.58-1.58-1.58l-20.16-4.73c-13.92-3.4-25.38-13.23-30.87-26.46
		c-0.45-1.19-1.77-1.79-2.96-1.34c-0.06,0.02-0.13,0.05-0.19,0.08l0,0c-1.16,0.38-1.8,1.63-1.42,2.79c0.04,0.12,0.09,0.24,0.15,0.36
		l0,0c6.27,14.51,18.98,25.23,34.34,28.98l10.71,2.52l-10.4,2.21c-18.53,4.48-32.85,19.17-36.86,37.8l-1.89,8.82l-1.89-8.82
		c-4.01-18.63-18.33-33.33-36.85-37.81l-10.71-2.52l10.71-2.52c18.52-4.48,32.85-19.17,36.86-37.8L46,88.78l1.89,8.82
		c0.32,1.2,1.56,1.92,2.76,1.6c0.03-0.01,0.05-0.01,0.08-0.02c1.11-0.29,1.8-1.4,1.58-2.52l-4.1-19.84
		c-0.3-1.01-1.16-1.74-2.21-1.89c-1.26,0-2.21,0.63-2.21,1.89l-4.1,19.85c-3.57,16.93-16.57,30.3-33.39,34.34l-20.16,4.73
		c-1.2,0.32-1.92,1.56-1.6,2.76c0.01,0.03,0.01,0.05,0.02,0.08c0.32,0.94,0.94,1.58,1.58,1.58l20.16,4.72
		C14.4,147.17,21.77,151.5,27.73,157.45z"/>
	<path id="Path_15" d="M147.13,96.34c-3.89,3.85-6.53,8.8-7.56,14.18l0,0c-0.6-3.38-1.88-6.6-3.78-9.45
		c-0.75-0.97-2.09-1.24-3.15-0.63c-1,0.73-1.28,2.1-0.63,3.15c1.5,2.42,2.57,5.09,3.15,7.88l2.52,11.03
		c0.28,1.29,1.54,2.13,2.84,1.89c0.91-0.28,1.62-0.99,1.89-1.89l2.21-11.03c2.01-9.19,9.11-16.42,18.27-18.59l11.34-2.84
		c1.2-0.32,1.92-1.56,1.6-2.76c-0.01-0.03-0.01-0.05-0.02-0.08c-0.32-0.94-0.94-1.58-1.58-1.58l-11.34-2.84
		c-4.43-1.06-8.48-3.35-11.66-6.62c-3.18-3.32-5.37-7.47-6.3-11.97l-2.52-11.03c-0.28-1.29-1.54-2.13-2.84-1.89
		c-0.91,0.28-1.62,0.99-1.89,1.89l-2.84,11.03c-1.01,4.48-3.18,8.61-6.3,11.97c-3.18,3.26-7.22,5.56-11.66,6.62l-11.34,2.84
		c-1.2,0.32-1.92,1.56-1.59,2.76c0.01,0.03,0.01,0.05,0.02,0.08c0.32,0.94,0.94,1.58,1.58,1.58l11.34,2.84
		c2.22,0.51,4.34,1.36,6.3,2.52c1.05,0.7,2.46,0.41,3.15-0.63c0.7-1.05,0.41-2.46-0.63-3.15c-0.17,0-0.31-0.13-0.32-0.3
		c0,0,0-0.01,0-0.01c-2.4-1.32-4.94-2.37-7.56-3.15l-1.89-0.32l1.89-0.32c10.95-2.64,19.41-11.34,21.74-22.37l0,0
		c1.16,5.33,3.78,10.24,7.56,14.18c3.84,3.8,8.63,6.52,13.86,7.88l1.89,0.32l-1.89,0.32C155.79,89.59,151.05,92.5,147.13,96.34z"/>
	<path id="Path_17" d="M94.52,199.02c0.32,0.94,0.94,2.21,1.26,3.15c0.59,1.14,2,1.58,3.14,0.99c1.14-0.59,1.58-2,0.99-3.14
		c-0.01-0.02-0.02-0.04-0.03-0.06c-0.56-1.32-0.99-2.69-1.26-4.1l-1.58-8.19c-0.28-1.29-1.54-2.13-2.84-1.89
		c-0.91,0.28-1.62,0.99-1.89,1.89l-1.57,8.19c-1.5,6.48-6.48,11.58-12.92,13.23l-8.51,1.89c-1.2,0.32-1.92,1.56-1.6,2.76
		c0.01,0.03,0.01,0.05,0.02,0.08c0.32,0.94,0.94,1.58,1.58,1.58l8.51,1.89c6.44,1.65,11.42,6.76,12.92,13.23l1.58,8.19
		c0.28,1.29,1.54,2.13,2.84,1.89c0.91-0.28,1.62-0.99,1.89-1.89l1.58-8.19c1.48-6.31,6.33-11.28,12.6-12.92l8.51-1.89
		c1.2-0.32,1.92-1.56,1.6-2.76c-0.01-0.03-0.01-0.05-0.02-0.08c-0.32-0.94-0.94-1.58-1.58-1.58l-8.51-2.2
		c-2.23-0.62-4.36-1.58-6.3-2.84c-1.06-0.61-2.41-0.34-3.15,0.63c-0.72,0.95-0.52,2.3,0.43,3.02c0.07,0.05,0.13,0.09,0.2,0.14
		c2.07,1.58,4.42,2.76,6.93,3.46c-7.07,2.19-12.61,7.73-14.8,14.81c-2.31-6.94-7.82-12.33-14.81-14.49
		C86.67,211.44,92.14,205.97,94.52,199.02z"/>
</g>
</svg>
