<?xml version="1.0" encoding="utf-8"?>
<!-- Generator: Adobe Illustrator 25.4.1, SVG Export Plug-In . SVG Version: 6.00 Build 0)  -->
<svg version="1.1" id="Layer_1" xmlns="http://www.w3.org/2000/svg" xmlns:xlink="http://www.w3.org/1999/xlink" x="0px" y="0px"
	 viewBox="0 0 1920 576" style="enable-background:new 0 0 1920 576;" xml:space="preserve">
<style type="text/css">
	.st0{fill:#FCF4BA;}
	.st1{fill:none;stroke:#707070;}
	.st2{enable-background:new    ;}
	.st3{fill:#FFABDB;}
</style>
<circle class="st0" cx="1779.5" cy="290.1" r="84.5"/>
<circle class="st1" cx="1779.5" cy="290.1" r="83.9"/>
<g>
	<g class="st2">
		<path d="M212.9,224.6h16.9v134.7h-16.9V224.6z M290.3,224.6h23.2l-86,88.6v-23.6L290.3,224.6z M251.7,281.4l65.4,77.9h-21.9
			l-55.5-66.9L251.7,281.4z"/>
		<path d="M371.7,361.8c-8.4,0-15.4-1.5-20.9-4.5c-5.5-3-9.6-6.9-12.3-11.7c-2.7-4.8-4.1-9.8-4.1-15.1c0-6.9,1.7-12.6,5.2-16.9
			c3.5-4.4,8.2-7.6,14.2-9.6c6-2,12.8-3.1,20.3-3.1c5.4,0,10.7,0.5,16.1,1.6c5.4,1.1,10.7,2.5,15.8,4.4v10.5
			c-4.3-1.7-9.1-3.1-14.5-4.1c-5.4-1-10.4-1.5-14.9-1.5c-6.9,0-12.6,1.4-17.4,4.2s-7.1,7.6-7.1,14.4c0,5,1.8,9.3,5.4,12.9
			c3.6,3.6,9.4,5.4,17.3,5.4c5.6,0,10.6-1.3,15.1-3.9c4.5-2.6,8-5.9,10.6-9.8s3.9-7.9,3.9-11.8h4.1c0,6.9-1.5,13.2-4.5,19.1
			s-7.2,10.6-12.7,14.1C386,360,379.4,361.8,371.7,361.8z M406.7,359.2l-2.1-22.5v-44c0-9.2-2-15.9-5.9-19.9
			c-3.9-4-9.8-6.1-17.7-6.1c-4.4,0-8.5,0.6-12.1,1.9c-3.6,1.3-6.5,3.3-8.6,6c-2.1,2.7-3.2,6.1-3.2,10.4h-18.7c0-7.4,1.8-13.4,5.5-18
			c3.6-4.5,8.7-7.8,15.1-9.9c6.4-2,13.7-3.1,21.9-3.1c7.9,0,14.8,1.3,20.9,4c6.1,2.6,10.8,6.9,14.3,12.6c3.4,5.8,5.1,13.2,5.1,22.5
			v66.1L406.7,359.2L406.7,359.2z"/>
		<path d="M446.9,268.3v-11.6h65.4v11.6H446.9z M492.8,361.8c-5.6,0-10.6-1.1-15-3.2c-4.4-2.1-7.9-5.4-10.5-9.6
			c-2.6-4.3-3.9-9.6-3.9-16.1V228.2h16.5v104.2c0,10.6,4.9,15.9,14.8,15.9c2.9,0,5.8-0.3,8.5-1c2.8-0.6,5.8-1.6,9.3-2.9l2.4,12
			c-3.6,1.6-7.3,2.9-10.9,3.9C500.4,361.3,496.6,361.8,492.8,361.8z"/>
		<path d="M577.5,361.8c-8.9,0-16.8-2.3-23.8-6.8s-12.5-10.9-16.5-18.9c-4-8.1-6.1-17.4-6.1-27.9c0-11.2,2-20.9,6-29
			c4-8.1,9.5-14.3,16.5-18.6c7-4.3,14.9-6.5,23.9-6.5c7.8,0,14.4,1.6,19.9,4.7c5.5,3.1,9.9,7.4,13.3,12.8c3.4,5.4,5.7,11.4,7,18.2
			c1.3,6.8,1.7,13.7,1.1,21h-74.2v-10.3h63.2l-4.9,3.2c0.2-4.2,0-8.4-0.7-12.6s-2-8.1-3.8-11.6c-1.9-3.5-4.5-6.4-7.8-8.5
			c-3.4-2.1-7.7-3.2-12.9-3.2c-6.6,0-12.1,1.7-16.5,5c-4.4,3.4-7.8,7.8-10,13.2c-2.2,5.5-3.3,11.4-3.3,17.8v6.9
			c0,7.1,1.1,13.5,3.3,19.2c2.2,5.6,5.5,10.1,9.8,13.4c4.4,3.3,9.9,4.9,16.5,4.9s12.1-1.6,16.4-4.8s6.9-8,7.8-14.3h17.4
			c-1.1,6.8-3.5,12.6-7.3,17.5c-3.8,4.9-8.6,8.7-14.5,11.3C591.5,360.5,584.8,361.8,577.5,361.8z"/>
		<path d="M652,359.2V256.5h16.7v102.7H652z M663.6,312.9c0-13,1.2-23.8,3.8-32.4c2.5-8.6,6.2-15,11-19.3c4.8-4.2,10.7-6.4,17.6-6.4
			c2.3,0,4.4,0.2,6.3,0.5c1.9,0.3,3.8,0.8,5.7,1.4l-1.1,16.5c-2-0.6-4.2-1.2-6.5-1.7s-4.5-0.7-6.3-0.7c-6.1,0-11,1.7-14.7,5.2
			c-3.7,3.5-6.4,8.4-8.1,14.6s-2.5,13.7-2.5,22.2L663.6,312.9L663.6,312.9z"/>
		<path d="M739,232.5c-3.4,0-6.2-1-8.2-2.9s-3-4.6-3-7.8c0-3.1,1-5.6,3-7.5s4.7-2.8,8.2-2.8c3.4,0,6.2,0.9,8.2,2.8s3,4.4,3,7.5
			c0,3.2-1,5.8-3,7.8C745.1,231.5,742.4,232.5,739,232.5z M730.6,359.2V256.5h16.7v102.7H730.6z"/>
		<path d="M793.4,359.2V256.7h14.4l2.4,23.6v78.9L793.4,359.2L793.4,359.2z M866.4,359.2V299c0-9.8-2.3-17.2-7-22.4
			c-4.7-5.1-11.1-7.7-19.1-7.7c-6.2,0-11.5,1.7-16,5c-4.5,3.4-8,8.2-10.4,14.4c-2.4,6.3-3.7,13.7-3.7,22.4h-6.4
			c0-11.9,1.6-22.1,4.7-30.6c3.1-8.4,7.7-14.9,13.8-19.4c6-4.5,13.4-6.7,22-6.7c8.1,0,15,1.8,20.8,5.4c5.8,3.6,10.2,8.8,13.2,15.5
			c3.1,6.7,4.6,14.7,4.6,23.9v60.3H866.4z"/>
		<path d="M951.4,361.8c-8.4,0-15.4-1.5-20.9-4.5c-5.5-3-9.6-6.9-12.3-11.7c-2.7-4.8-4.1-9.8-4.1-15.1c0-6.9,1.7-12.6,5.2-16.9
			c3.5-4.4,8.2-7.6,14.2-9.6c6-2,12.8-3.1,20.3-3.1c5.4,0,10.7,0.5,16.1,1.6c5.4,1.1,10.7,2.5,15.8,4.4v10.5
			c-4.3-1.7-9.1-3.1-14.5-4.1c-5.4-1-10.3-1.5-14.8-1.5c-6.9,0-12.7,1.4-17.4,4.2s-7.1,7.6-7.1,14.4c0,5,1.8,9.3,5.4,12.9
			c3.6,3.6,9.4,5.4,17.3,5.4c5.6,0,10.6-1.3,15.1-3.9c4.5-2.6,8-5.9,10.6-9.8c2.6-3.9,3.9-7.9,3.9-11.8h4.1c0,6.9-1.5,13.2-4.5,19.1
			c-3,5.9-7.2,10.6-12.7,14.1C965.6,360,959,361.8,951.4,361.8z M986.3,359.2l-2.1-22.5v-44c0-9.2-2-15.9-5.9-19.9
			c-3.9-4-9.8-6.1-17.7-6.1c-4.4,0-8.5,0.6-12.1,1.9c-3.6,1.3-6.5,3.3-8.6,6c-2.1,2.7-3.2,6.1-3.2,10.4h-18.7c0-7.4,1.8-13.4,5.5-18
			c3.7-4.5,8.7-7.8,15.1-9.9c6.4-2,13.7-3.1,21.9-3.1c7.9,0,14.8,1.3,20.9,4c6.1,2.6,10.8,6.9,14.3,12.6c3.4,5.8,5.2,13.2,5.2,22.5
			v66.1L986.3,359.2L986.3,359.2z"/>
		<path d="M1091.8,224.6h39.5c13.6,0,25.4,2.8,35.4,8.3c10,5.5,17.8,13.4,23.3,23.4c5.5,10.1,8.3,22,8.3,35.6
			c0,13.5-2.8,25.3-8.3,35.4c-5.5,10.1-13.3,17.9-23.3,23.5c-10,5.6-21.8,8.4-35.4,8.4h-39.5V224.6z M1108.6,239.4v105.3h22.7
			c10.2,0,18.9-2.3,26.2-6.9c7.3-4.6,13-10.9,16.9-18.8s5.9-17,5.9-27.1c0-10.1-2-19.2-5.9-27.1s-9.6-14.1-16.9-18.7
			c-7.3-4.5-16.1-6.8-26.2-6.8L1108.6,239.4L1108.6,239.4z"/>
		<path d="M1230.4,256.5h16.7v63.9c0,8.6,2.1,15.1,6.3,19.5c4.2,4.4,10.2,6.6,18,6.6c6.4,0,12-1.7,16.8-5.1c4.8-3.4,8.4-8.2,11-14.2
			c2.6-6,3.9-13,3.9-20.8h6.2c0,11.5-1.7,21.3-5,29.5s-8,14.4-14.1,18.7c-6,4.3-13.1,6.5-21.3,6.5c-7.7,0-14.5-1.4-20.3-4.3
			c-5.8-2.9-10.3-7.2-13.5-13s-4.8-13.2-4.8-22.1L1230.4,256.5L1230.4,256.5z M1303.1,256.5h16.7v102.7h-16.7V256.5z"/>
		<path d="M1399.3,361.8c-8.2,0-15.9-2.2-23-6.6s-12.8-10.7-17.2-18.8s-6.5-17.6-6.5-28.6c0-11.3,2.2-20.9,6.5-29
			c4.4-8,10.1-14.1,17.2-18.3s14.8-6.3,23-6.3c5.8,0,11,0.9,15.6,2.6c4.6,1.8,8.6,4.2,12.1,7.2c3.4,3.1,6.3,6.6,8.5,10.5
			s3.9,8,5,12.3l-17.2,1.5c-1.8-5.9-4.8-10.6-8.9-14.1c-4.2-3.5-9.3-5.2-15.3-5.2c-5.1,0-9.8,1.5-14.3,4.3c-4.5,2.9-8.1,7.2-10.9,13
			c-2.8,5.8-4.2,12.9-4.2,21.5c0,7.9,1.3,14.8,3.8,20.6c2.5,5.8,6,10.4,10.4,13.6c4.4,3.2,9.5,4.8,15.1,4.8c7.9,0,14-2,18.1-5.8
			c4.1-3.9,6.2-9.3,6.2-16.2h17.2c0,7.1-1.7,13.5-5,19.1s-8.1,10-14.3,13.2C1414.9,360.2,1407.6,361.8,1399.3,361.8z"/>
		<path d="M1511,361.8c-9.2,0-17.4-2-24.6-6.1c-7.2-4.1-12.8-10.1-17-18.1s-6.2-17.9-6.2-29.6c0-11.8,2.1-21.7,6.2-29.6
			s9.8-14,17-18.1c7.2-4.1,15.4-6.1,24.6-6.1c9.2,0,17.3,2,24.5,6.1s12.8,10.1,16.9,18.1s6.2,17.9,6.2,29.6
			c0,11.7-2.1,21.6-6.2,29.6c-4.1,8-9.8,14-16.9,18.1C1528.3,359.8,1520.1,361.8,1511,361.8z M1510.6,347.2c6.7,0,12.3-1.6,16.9-4.8
			c4.7-3.2,8.2-7.7,10.6-13.6s3.6-12.8,3.6-20.9c0-12.2-2.5-21.9-7.6-28.9c-5.1-7-12.6-10.6-22.6-10.6c-6.7,0-12.4,1.6-17,4.8
			c-4.6,3.2-8.1,7.7-10.5,13.6s-3.6,12.9-3.6,21.1c0,12.1,2.6,21.6,7.7,28.7C1493.1,343.7,1500.6,347.2,1510.6,347.2z"/>
		<path d="M1576.7,268.3v-11.6h65.4v11.6H1576.7z M1622.6,361.8c-5.6,0-10.6-1.1-15-3.2c-4.4-2.1-7.9-5.4-10.5-9.6
			c-2.6-4.3-3.9-9.6-3.9-16.1V228.2h16.5v104.2c0,10.6,4.9,15.9,14.8,15.9c2.9,0,5.8-0.3,8.5-1c2.8-0.6,5.8-1.6,9.3-2.9l2.4,12
			c-3.7,1.6-7.3,2.9-10.9,3.9C1630.2,361.3,1626.5,361.8,1622.6,361.8z"/>
	</g>
</g>
<g id="noun_blink_2618636" transform="translate(1404 121.633)">
	<path id="Path_6" d="M417.5,171.1c-1.8,0-3.3,1.5-3.3,3.3l0,0c0.1,22.8-18.2,41.3-41,41.4s-41.3-18.2-41.4-41c0-0.1,0-0.3,0-0.5
		c0-1.8-1.5-3.3-3.3-3.3c-1.8,0-3.3,1.5-3.3,3.3c0,26.4,21.4,47.8,47.8,47.8s47.8-21.4,47.8-47.8
		C420.9,172.5,419.4,171.1,417.5,171.1L417.5,171.1z"/>
	<path id="Path_7" d="M373,80.9c-47.8,0-86.5,38.7-86.5,86.5s38.7,86.5,86.5,86.5s86.5-38.7,86.5-86.5
		C459.5,119.6,420.8,80.9,373,80.9z M373,247.2c-44.1,0-79.9-35.8-79.9-79.9s35.8-79.9,79.9-79.9s79.9,35.8,79.9,79.9c0,0,0,0,0,0
		C452.9,211.5,417.1,247.2,373,247.2L373,247.2z"/>
	<path id="Path_8" d="M334.4,139.9l-4.9,4.9c-1.3,1.3-1.3,3.4-0.1,4.7s3.4,1.3,4.7,0.1c0,0,0,0,0.1-0.1l4.9-4.9v7
		c0,1.8,1.5,3.3,3.3,3.3s3.3-1.5,3.3-3.3v-7l4.9,4.9c1.3,1.3,3.4,1.2,4.7-0.1c1.2-1.3,1.2-3.3,0-4.6l-4.9-4.9h7
		c1.8,0,3.3-1.5,3.3-3.3s-1.5-3.3-3.3-3.3h-7l4.9-4.9c1.3-1.3,1.2-3.4-0.1-4.7c-1.3-1.2-3.3-1.2-4.6,0l-4.9,4.9v-7
		c0-1.8-1.5-3.3-3.3-3.3c-1.8,0-3.3,1.5-3.3,3.3l0,0v7l-4.9-4.9c-1.3-1.3-3.4-1.2-4.7,0.1c-1.2,1.3-1.2,3.3,0,4.6l4.9,4.9h-7
		c-1.8,0-3.3,1.5-3.3,3.3s1.5,3.3,3.3,3.3L334.4,139.9z"/>
	<path id="Path_9" d="M418.6,133.3h-7l4.9-4.9c1.3-1.3,1.2-3.4-0.1-4.7c-1.3-1.2-3.3-1.2-4.6,0l-4.9,4.9v-7c0-1.8-1.5-3.3-3.3-3.3
		c-1.8,0-3.3,1.5-3.3,3.3v7l-4.9-4.9c-1.3-1.3-3.4-1.2-4.7,0.1c-1.2,1.3-1.2,3.3,0,4.6l4.9,4.9h-7c-1.8,0-3.3,1.5-3.3,3.3
		s1.5,3.3,3.3,3.3h7l-4.9,4.9c-1.3,1.3-1.3,3.4-0.1,4.7s3.4,1.3,4.7,0.1c0,0,0,0,0.1-0.1l4.9-4.9v7c0,1.8,1.5,3.3,3.3,3.3
		c1.8,0,3.3-1.5,3.3-3.3v-7l4.9,4.9c1.3,1.3,3.4,1.2,4.7-0.1c1.2-1.3,1.2-3.3,0-4.6l-4.9-4.9h7c1.8,0,3.3-1.5,3.3-3.3
		C421.9,134.8,420.5,133.3,418.6,133.3L418.6,133.3z"/>
</g>
<g id="noun_sparkles_3949177" transform="translate(64 69.759)">
	<path id="Path_10" class="st3" d="M-11.3,137.9c0,0,58-3.5,54.8-61.1c0,0,7.2,61.1,62.4,58.9c0,0-57.7,8.8-60.2,59.2
		C46,194.9,45.4,142-11.3,137.9z"/>
	<path id="Path_12" class="st3" d="M68.4,214.5c0,0,25.2-1.6,23.9-26.5c0,0,3.2,26.5,27.1,25.5c0,0-25.2,3.8-26.2,25.8
		C93.3,239,92.9,216,68.4,214.5z"/>
	<path id="Path_13" class="st3" d="M107.8,88.8c0,0,30.6-1.9,28.7-32.1c0,0,3.8,32.1,32.8,30.9c0,0-30.2,4.7-31.5,31.2
		C137.7,118.7,137.4,91,107.8,88.8z"/>
	<path id="Path_14" d="M27.7,157.4c6,6,10,13.7,11.7,22.1l4.1,19.9c0.3,1,1.2,1.7,2.2,1.9c1.3,0,2.2-0.6,2.2-1.9l4.1-19.9
		c3.6-16.9,16.6-30.3,33.4-34.3l20.2-4.7c1.2-0.3,1.9-1.6,1.6-2.8c0,0,0-0.1,0-0.1c-0.3-0.9-0.9-1.6-1.6-1.6l-20.2-4.7
		c-13.9-3.4-25.4-13.2-30.9-26.5c-0.5-1.2-1.8-1.8-3-1.3c-0.1,0-0.1,0.1-0.2,0.1l0,0c-1.2,0.4-1.8,1.6-1.4,2.8
		c0,0.1,0.1,0.2,0.2,0.4l0,0c6.3,14.5,19,25.2,34.3,29l10.7,2.5l-10.4,2.2c-18.5,4.5-32.8,19.2-36.9,37.8L46,187l-1.9-8.8
		c-4-18.6-18.3-33.3-36.8-37.8l-10.7-2.5l10.7-2.5c18.5-4.5,32.8-19.2,36.9-37.8l1.9-8.8l1.9,8.8c0.3,1.2,1.6,1.9,2.8,1.6
		c0,0,0,0,0.1,0c1.1-0.3,1.8-1.4,1.6-2.5l-4.1-19.8c-0.3-1-1.2-1.7-2.2-1.9c-1.3,0-2.2,0.6-2.2,1.9l-4.1,19.8
		C36.1,113.6,23.1,127,6.3,131l-20.2,4.7c-1.2,0.3-1.9,1.6-1.6,2.8c0,0,0,0.1,0,0.1c0.3,0.9,0.9,1.6,1.6,1.6l20.2,4.7
		C14.4,147.2,21.8,151.5,27.7,157.4z"/>
	<path id="Path_15" d="M147.1,96.3c-3.9,3.8-6.5,8.8-7.6,14.2l0,0c-0.6-3.4-1.9-6.6-3.8-9.4c-0.8-1-2.1-1.2-3.1-0.6
		c-1,0.7-1.3,2.1-0.6,3.2c1.5,2.4,2.6,5.1,3.1,7.9l2.5,11c0.3,1.3,1.5,2.1,2.8,1.9c0.9-0.3,1.6-1,1.9-1.9l2.2-11
		c2-9.2,9.1-16.4,18.3-18.6l11.3-2.8c1.2-0.3,1.9-1.6,1.6-2.8c0,0,0-0.1,0-0.1c-0.3-0.9-0.9-1.6-1.6-1.6l-11.3-2.8
		c-4.4-1.1-8.5-3.3-11.7-6.6c-3.2-3.3-5.4-7.5-6.3-12l-2.5-11c-0.3-1.3-1.5-2.1-2.8-1.9c-0.9,0.3-1.6,1-1.9,1.9l-2.8,11
		c-1,4.5-3.2,8.6-6.3,12c-3.2,3.3-7.2,5.6-11.7,6.6l-11.3,2.8c-1.2,0.3-1.9,1.6-1.6,2.8c0,0,0,0.1,0,0.1c0.3,0.9,0.9,1.6,1.6,1.6
		l11.3,2.8c2.2,0.5,4.3,1.4,6.3,2.5c1.1,0.7,2.5,0.4,3.2-0.6c0.7-1.1,0.4-2.5-0.6-3.2c-0.2,0-0.3-0.1-0.3-0.3v0
		c-2.4-1.3-4.9-2.4-7.6-3.2l-1.9-0.3l1.9-0.3c11-2.6,19.4-11.3,21.7-22.4l0,0c1.2,5.3,3.8,10.2,7.6,14.2c3.8,3.8,8.6,6.5,13.9,7.9
		l1.9,0.3l-1.9,0.3C155.8,89.6,151.1,92.5,147.1,96.3z"/>
	<path id="Path_17" d="M94.5,199c0.3,0.9,0.9,2.2,1.3,3.1c0.6,1.1,2,1.6,3.1,1s1.6-2,1-3.1c0,0,0,0,0-0.1c-0.6-1.3-1-2.7-1.3-4.1
		l-1.6-8.2c-0.3-1.3-1.5-2.1-2.8-1.9c-0.9,0.3-1.6,1-1.9,1.9l-1.6,8.2c-1.5,6.5-6.5,11.6-12.9,13.2l-8.5,1.9
		c-1.2,0.3-1.9,1.6-1.6,2.8c0,0,0,0.1,0,0.1c0.3,0.9,0.9,1.6,1.6,1.6l8.5,1.9c6.4,1.6,11.4,6.8,12.9,13.2l1.6,8.2
		c0.3,1.3,1.5,2.1,2.8,1.9c0.9-0.3,1.6-1,1.9-1.9l1.6-8.2c1.5-6.3,6.3-11.3,12.6-12.9l8.5-1.9c1.2-0.3,1.9-1.6,1.6-2.8
		c0,0,0-0.1,0-0.1c-0.3-0.9-0.9-1.6-1.6-1.6l-8.5-2.2c-2.2-0.6-4.4-1.6-6.3-2.8c-1.1-0.6-2.4-0.3-3.2,0.6c-0.7,0.9-0.5,2.3,0.4,3
		c0.1,0.1,0.1,0.1,0.2,0.1c2.1,1.6,4.4,2.8,6.9,3.5c-7.1,2.2-12.6,7.7-14.8,14.8c-2.3-6.9-7.8-12.3-14.8-14.5
		C86.7,211.4,92.1,206,94.5,199z"/>
</g>
</svg>
