<svg xmlns="http://www.w3.org/2000/svg" data-name="Layer 2" viewBox="0 0 512 640" x="0px" y="0px"><title>Mixed_UI 2 outline</title><g><path d="M342.52,240a6.5,6.5,0,0,0-6.5,6.5,80,80,0,1,1-160,0,6.5,6.5,0,0,0-13,0,93,93,0,0,0,186,0A6.5,6.5,0,0,0,342.52,240Z"/><path d="M169.28,193.74a6.5,6.5,0,0,0,6.5-6.5v-5a6.5,6.5,0,0,0-13,0v5A6.5,6.5,0,0,0,169.28,193.74Z"/><path d="M342.72,172.48a6.5,6.5,0,0,0-6.5,6.5v5a6.5,6.5,0,1,0,13,0v-5A6.5,6.5,0,0,0,342.72,172.48Z"/></g><text x="0" y="527" fill="#000000" font-size="5px" font-weight="bold" font-family="'Helvetica Neue', Helvetica, Arial-Unicode, Arial, Sans-serif">Created by Palukx</text><text x="0" y="532" fill="#000000" font-size="5px" font-weight="bold" font-family="'Helvetica Neue', Helvetica, Arial-Unicode, Arial, Sans-serif">from the Noun Project</text></svg>