<?xml version="1.0" encoding="utf-8"?>
<!-- Generator: Adobe Illustrator 25.4.1, SVG Export Plug-In . SVG Version: 6.00 Build 0)  -->
<svg version="1.1" id="Layer_1" xmlns="http://www.w3.org/2000/svg" xmlns:xlink="http://www.w3.org/1999/xlink" x="0px" y="0px"
	 viewBox="0 0 90 112.5" style="enable-background:new 0 0 90 112.5;" xml:space="preserve">
<style type="text/css">
	.st0{fill:#FFF1A1;}
</style>
<circle class="st0" cx="45" cy="45" r="26.1"/>
<path d="M58.4,46.1c-0.6,0-1,0.4-1,1c0,6.8-5.6,12.4-12.4,12.4S32.6,54,32.6,47.1c0-0.6-0.4-1-1-1s-1,0.4-1,1
	c0,7.9,6.5,14.4,14.4,14.4s14.4-6.5,14.4-14.4C59.4,46.6,59,46.1,58.4,46.1z"/>
<path d="M45,18.9c-14.4,0-26.1,11.7-26.1,26.1S30.6,71.1,45,71.1S71.1,59.4,71.1,45S59.4,18.9,45,18.9z M45,69.1
	c-13.3,0-24.1-10.8-24.1-24.1S31.7,20.9,45,20.9S69.1,31.7,69.1,45S58.3,69.1,45,69.1z"/>
<path d="M33.4,36.7l-1.5,1.5c-0.4,0.4-0.4,1,0,1.4c0.2,0.2,0.5,0.3,0.7,0.3s0.5-0.1,0.7-0.3l1.5-1.5v2.1c0,0.6,0.4,1,1,1s1-0.4,1-1
	v-2.1l1.5,1.5c0.2,0.2,0.5,0.3,0.7,0.3s0.5-0.1,0.7-0.3c0.4-0.4,0.4-1,0-1.4l-1.5-1.5h2.1c0.6,0,1-0.4,1-1s-0.4-1-1-1h-2.1l1.5-1.5
	c0.4-0.4,0.4-1,0-1.4s-1-0.4-1.4,0l-1.5,1.5v-2.1c0-0.6-0.4-1-1-1s-1,0.4-1,1v2.1l-1.5-1.5c-0.4-0.4-1-0.4-1.4,0s-0.4,1,0,1.4
	l1.5,1.5h-2.1c-0.6,0-1,0.4-1,1s0.4,1,1,1H33.4z"/>
<path d="M58.7,34.7h-2.1l1.5-1.5c0.4-0.4,0.4-1,0-1.4s-1-0.4-1.4,0l-1.5,1.5v-2.1c0-0.6-0.4-1-1-1s-1,0.4-1,1v2.1l-1.5-1.5
	c-0.4-0.4-1-0.4-1.4,0s-0.4,1,0,1.4l1.5,1.5h-2.1c-0.6,0-1,0.4-1,1s0.4,1,1,1h2.1l-1.5,1.5c-0.4,0.4-0.4,1,0,1.4
	c0.2,0.2,0.5,0.3,0.7,0.3s0.5-0.1,0.7-0.3l1.5-1.5v2.1c0,0.6,0.4,1,1,1s1-0.4,1-1v-2.1l1.5,1.5c0.2,0.2,0.5,0.3,0.7,0.3
	s0.5-0.1,0.7-0.3c0.4-0.4,0.4-1,0-1.4l-1.5-1.5h2.1c0.6,0,1-0.4,1-1S59.3,34.7,58.7,34.7z"/>
</svg>
