<?xml version="1.0" encoding="utf-8"?>
<!-- Generator: Adobe Illustrator 25.4.1, SVG Export Plug-In . SVG Version: 6.00 Build 0)  -->
<svg version="1.1" id="Layer_1" xmlns="http://www.w3.org/2000/svg" xmlns:xlink="http://www.w3.org/1999/xlink" x="0px" y="0px"
	 viewBox="0 0 100 125" style="enable-background:new 0 0 100 125;" xml:space="preserve">
<style type="text/css">
	.st0{fill:#FFABDB;}
	.st1{font-family:'HelveticaNeue-Bold';}
	.st2{font-size:5px;}
</style>
<g id="Layer_2">
</g>
<path class="st0" d="M16.5,44.4c0,0,18.4-1.1,17.4-19.4c0,0,2.3,19.4,19.8,18.7c0,0-18.3,2.8-19.1,18.8
	C34.7,62.5,34.5,45.7,16.5,44.4z"/>
<path class="st0" d="M59.6,60c0,0,12.1-0.7,11.5-12.8c0,0,1.5,12.8,13.1,12.3c0,0-12.1,1.9-12.6,12.4C71.5,71.9,71.4,60.9,59.6,60z"
	/>
<path class="st0" d="M39.4,74.3c0,0,8-0.5,7.6-8.4c0,0,1,8.4,8.6,8.1c0,0-8,1.2-8.3,8.2C47.3,82.1,47.2,74.8,39.4,74.3z"/>
<path class="st0" d="M54.3,28.8c0,0,9.7-0.6,9.1-10.2c0,0,1.2,10.2,10.4,9.8c0,0-9.6,1.5-10,9.9C63.8,38.3,63.7,29.5,54.3,28.8z"/>
<path d="M28.9,50.6c1.9,1.9,3.2,4.4,3.7,7l1.3,6.3c0.1,0.3,0.4,0.6,0.7,0.6c0.4,0,0.7-0.2,0.7-0.6l1.3-6.3
	c1.1-5.4,5.3-9.6,10.6-10.9l6.4-1.5c0.4-0.1,0.6-0.5,0.5-0.9c-0.1-0.3-0.3-0.5-0.5-0.5l-6.4-1.5c-4.4-1.1-8.1-4.2-9.8-8.4
	c-0.2-0.4-0.6-0.6-1-0.4c0,0,0,0,0,0c-0.4,0.1-0.6,0.6-0.4,1c0,0,0,0,0,0c2,4.6,6,8,10.9,9.2l3.4,0.8L47,45.2
	c-5.9,1.4-10.4,6.1-11.7,12l-0.6,2.8l-0.6-2.8c-1.3-5.9-5.8-10.6-11.7-12L19,44.4l3.4-0.8c5.9-1.4,10.4-6.1,11.7-12l0.6-2.8l0.6,2.8
	c0.1,0.4,0.5,0.6,0.9,0.5c0.3-0.1,0.6-0.4,0.5-0.8L35.4,25c-0.1-0.3-0.4-0.6-0.7-0.6c-0.4,0-0.7,0.2-0.7,0.6l-1.3,6.3
	c-1.1,5.4-5.3,9.6-10.6,10.9l-6.4,1.5c-0.4,0.1-0.6,0.5-0.5,0.9c0.1,0.3,0.3,0.5,0.5,0.5l6.4,1.5C24.6,47.3,27,48.7,28.9,50.6z"/>
<path d="M66.8,31.2c-1.2,1.2-2.1,2.8-2.4,4.5v0.1v-0.1c-0.2-1.1-0.6-2.1-1.2-3c-0.2-0.3-0.7-0.4-1-0.2c-0.3,0.2-0.4,0.6-0.2,1
	c0.5,0.8,0.8,1.6,1,2.5l0.8,3.5c0.1,0.4,0.5,0.7,0.9,0.6c0.3-0.1,0.5-0.3,0.6-0.6l0.7-3.5c0.6-2.9,2.9-5.2,5.8-5.9l3.6-0.9
	c0.4-0.1,0.6-0.5,0.5-0.9c-0.1-0.3-0.3-0.5-0.5-0.5l-3.6-0.9c-1.4-0.3-2.7-1.1-3.7-2.1c-1-1-1.7-2.4-2-3.8l-0.8-3.5
	c-0.1-0.4-0.5-0.7-0.9-0.6c-0.3,0.1-0.5,0.3-0.6,0.6L62.9,21c-0.3,1.4-1,2.7-2,3.8c-1,1-2.3,1.8-3.7,2.1l-3.6,0.9
	c-0.4,0.1-0.6,0.5-0.5,0.9c0.1,0.3,0.3,0.5,0.5,0.5l3.6,0.9c0.7,0.2,1.4,0.4,2,0.8c0.3,0.2,0.8,0.1,1-0.2s0.1-0.8-0.2-1
	c0,0-0.1,0-0.1-0.1c-0.8-0.4-1.6-0.8-2.4-1l-0.6-0.1l0.6-0.1c3.5-0.8,6.1-3.6,6.9-7.1v-0.1v0.1c0.4,1.7,1.2,3.3,2.4,4.5
	c1.2,1.2,2.8,2.1,4.4,2.5l0.6,0.1l-0.6,0.1C69.5,29.1,68,30,66.8,31.2z"/>
<path d="M84.4,59.5L80,58.5c-1.8-0.4-3.4-1.3-4.6-2.6c-1.3-1.3-2.1-2.9-2.5-4.7L72,46.8c-0.1-0.3-0.4-0.6-0.7-0.6
	c-0.4,0-0.7,0.2-0.7,0.6l-0.9,4.3c-0.5,2.5-2,4.6-4.1,6c-0.3,0.2-0.4,0.7-0.2,1s0.7,0.4,1,0.2c2.5-1.6,4.2-4.1,4.8-7l0.2-0.9
	l0.2,0.9c0.4,2,1.4,3.9,2.9,5.4c1.5,1.5,3.3,2.5,5.3,3l1.4,0.3l-1.4,0.3c-2,0.5-3.9,1.5-5.3,3c-1.5,1.5-2.5,3.4-2.9,5.4l-0.2,0.9
	L71,69.1c-0.9-4.2-4.1-7.5-8.2-8.5l-1.4-0.3l1.4-0.3c0.4-0.1,0.6-0.5,0.5-0.9c-0.1-0.4-0.5-0.6-0.9-0.5L58,59.5
	c-0.4,0.1-0.7,0.5-0.6,0.9c0.1,0.3,0.3,0.5,0.6,0.6l4.4,1c3.6,0.9,6.4,3.7,7.1,7.3l0.9,4.3c0.1,0.3,0.4,0.6,0.7,0.6
	c0.4,0,0.7-0.2,0.7-0.6l0.9-4.3c0.8-3.6,3.5-6.5,7.1-7.3l4.4-1c0.4-0.1,0.6-0.5,0.5-0.9C84.9,59.8,84.7,59.6,84.4,59.5L84.4,59.5z"
	/>
<path d="M47.7,69.8c0.1,0.3,0.3,0.7,0.4,1c0.2,0.4,0.6,0.5,1,0.3s0.5-0.6,0.3-1c-0.2-0.4-0.3-0.9-0.4-1.3l-0.5-2.6
	c-0.1-0.4-0.5-0.7-0.9-0.6c-0.3,0.1-0.5,0.3-0.6,0.6l-0.5,2.6c-0.5,2.1-2.1,3.7-4.1,4.2l-2.7,0.6c-0.4,0.1-0.6,0.5-0.5,0.9
	c0.1,0.3,0.3,0.5,0.5,0.5l2.7,0.6c2,0.5,3.6,2.1,4.1,4.2l0.5,2.6c0.1,0.4,0.5,0.7,0.9,0.6c0.3-0.1,0.5-0.3,0.6-0.6l0.5-2.6
	c0.5-2,2-3.6,4-4.1l2.7-0.6c0.4-0.1,0.6-0.5,0.5-0.9c-0.1-0.3-0.3-0.5-0.5-0.5L53,73c-0.7-0.2-1.4-0.5-2-0.9c-0.3-0.2-0.8-0.1-1,0.2
	c-0.2,0.3-0.2,0.8,0.2,1c0.7,0.5,1.4,0.9,2.2,1.1c-2.2,0.7-4,2.4-4.7,4.7c-0.7-2.2-2.5-3.9-4.7-4.6C45.2,73.7,47,72,47.7,69.8z"/>
<text transform="matrix(1 0 0 1 0 115)" class="st1 st2">Created by Suncheli Project</text>
<text transform="matrix(1 0 0 1 0 120)" class="st1 st2">from the Noun Project</text>
</svg>
